# xmcd
#
# Track frame offsets:
#	150
#	12576
#	30560
#	47739
#	64668
#	83515
#	99147
#	115444
#	128874
#	147494
#	165651
#	178077
#	196061
#	213240
#	230169
#	249016
#	264648
#	280945
#	294375
#	312995
#
# Disc length: 4413 seconds
#
# Revision: 3
# Processed by: cddbd v1.5.2PL0 Copyright (c) Steve Scherf et al.
# Submitted via: audiograbber 1.83.01
#
DISCID=1b113b14
DTITLE=Various Artist - Karaoke April 2008
DYEAR=1900
DGENRE=
TTITLE0=WORKIN' FOR A LIVIN, (A) (VOCAL)
TTITLE1=JUST GOT STARTED LOVIN YOU (G) (VOCAL)
TTITLE2=WE WEREN'T CRAZY (C) (VOCAL)
TTITLE3=YOU'RE GONNA MISS THIS (Ab) (VOCAL)
TTITLE4=WE RODE IN TRUCKS (E) (VOCAL)
TTITLE5=IT AIN'T NO CRIME (B) (VOCAL)
TTITLE6=I DON'T LOVE YOU LIKE THAT (D) (VOCAL)
TTITLE7=GUNPOWER AND LEAD (G) (VOCAL)
TTITLE8=GUNPOWER AND LEAD (G) (VOCAL)
TTITLE9=SOME THINGS NEVER CHANGE (F) (VOCAL)
TTITLE10=WORKIN' FOR A LIVIN, (A)
TTITLE11=JUST GOT STARTED LOVIN YOU (G)
TTITLE12=WE WEREN'T CRAZY (C)
TTITLE13=YOU'RE GONNA MISS THIS (Ab)
TTITLE14=WE RODE IN TRUCKS (E)
TTITLE15=IT AIN'T NO CRIME (B)
TTITLE16=I DON'T LOVE YOU LIKE THAT (D)
TTITLE17=GUNPOWER AND LEAD (G)
TTITLE18=GUNPOWER AND LEAD (G)
TTITLE19=SOME THINGS NEVER CHANGE (F)
EXTD=
EXTT0=
EXTT1=
EXTT2=
EXTT3=
EXTT4=
EXTT5=
EXTT6=
EXTT7=
EXTT8=
EXTT9=
EXTT10=
EXTT11=
EXTT12=
EXTT13=
EXTT14=
EXTT15=
EXTT16=
EXTT17=
EXTT18=
EXTT19=
PLAYORDER=
